<svg id="Layer_1" data-name="Layer 1" xmlns="http://www.w3.org/2000/svg" viewBox="0 0 598.998 351.698">
  <defs>
    <style>
      .cls-1 {
        fill: #fff;
      }
    </style>
  </defs>
  <title>c7a864f1-4093-4a7f-a44e-9cf744e5cc92</title>
  <g>
    <g>
      <path class="cls-1" d="M14.1,307.772c-3.072,0-5.325,1.024-5.325,3.619,0,6.69,19.32,3.072,19.252,16.248,0,7.441-6.622,10.786-13.927,10.786a23.365,23.365,0,0,1-13.306-4,1.986,1.986,0,0,1-.584-2.5l1.008-2.017a1.99,1.99,0,0,1,2.863-.785,20.313,20.313,0,0,0,10.359,3.15c3.346,0,5.939-1.161,5.939-3.891,0-7.441-19.114-3.277-19.047-16.384,0-7.373,6.418-10.513,13.381-10.513a24.041,24.041,0,0,1,11.026,2.655,2.012,2.012,0,0,1,.866,2.662l-1.137,2.3a2,2,0,0,1-2.7.891A20.683,20.683,0,0,0,14.1,307.772Z" transform="translate(0)"/>
      <path class="cls-1" d="M70.428,303.832v32.319a2,2,0,0,1-2,2H64.644a2,2,0,0,1-2-2v-4.144c-2.662,4.164-6.963,6.485-12.7,6.485-10.445,0-17.408-7.578-17.408-18.637,0-10.855,6.895-18.3,17.135-18.364,5.871-.068,10.309,2.252,12.971,6.485v-4.144a2,2,0,0,1,2-2h3.784A2,2,0,0,1,70.428,303.832Zm-7.783,17.593v-2.663c-.614-6.281-4.915-10.582-11.059-10.582-6.554,0-11.128,4.984-11.2,11.947.068,6.9,4.574,11.81,11.2,11.81C57.729,331.939,62.03,327.638,62.645,321.425Z" transform="translate(0)"/>
      <path class="cls-1" d="M142.728,315.554v20.6a2,2,0,0,1-2,2h-3.852a2,2,0,0,1-2-2V317.739c0-5.53-3.276-8.875-8.6-8.875-6.212.205-9.967,4.984-9.967,11.333v15.955a2,2,0,0,1-2,2h-3.851a2,2,0,0,1-2-2V317.739c0-5.53-3.209-8.875-8.534-8.875-6.28.205-10.1,4.984-10.1,11.333v15.955a2,2,0,0,1-2,2H84.037a2,2,0,0,1-2-2V303.832a2,2,0,0,1,2-2H87.82a2,2,0,0,1,2,2v5.032c2.526-5.12,7.168-7.3,13.176-7.3,6.485,0,10.923,3.209,12.63,8.738,2.321-6.076,7.168-8.738,13.79-8.738C137.744,301.559,142.728,306.884,142.728,315.554Z" transform="translate(0)"/>
      <path class="cls-1" d="M186.222,303.832v32.319a2,2,0,0,1-2,2h-3.851a2,2,0,0,1-2-2v-5.1c-2.458,5.052-7.032,7.3-12.972,7.373-8.328,0-13.312-5.325-13.312-13.995v-20.6a2,2,0,0,1,2-2h3.851a2,2,0,0,1,2,2v18.412c0,5.461,3.208,8.807,8.465,8.807,6.281-.137,9.968-4.984,9.968-11.333V303.832a2,2,0,0,1,2-2h3.851A2,2,0,0,1,186.222,303.832Z" transform="translate(0)"/>
    </g>
    <path class="cls-1" d="M289.082,303.485V336.51a1.621,1.621,0,0,1-1.621,1.621h-4.529a1.621,1.621,0,0,1-1.621-1.621V332c-2.659,4.159-6.954,6.477-12.68,6.477-10.431,0-17.383-7.568-17.383-18.611,0-10.84,6.885-18.271,17.111-18.339,5.863-.067,10.294,2.251,12.953,6.477v-4.514a1.621,1.621,0,0,1,1.621-1.621h4.529A1.621,1.621,0,0,1,289.082,303.485Zm-7.771,17.944V318.77C280.7,312.5,276.4,308.2,270.267,308.2c-6.545,0-11.112,4.977-11.181,11.93.068,6.885,4.568,11.794,11.181,11.794C276.4,331.928,280.7,327.633,281.311,321.43Z" transform="translate(0)"/>
    <path class="cls-1" d="M321.055,303.3v4.16a1.629,1.629,0,0,1-1.584,1.617c-6.378.256-10.391,4.363-10.959,10.1v17.33a1.621,1.621,0,0,1-1.621,1.621h-4.6a1.621,1.621,0,0,1-1.621-1.621V303.485a1.621,1.621,0,0,1,1.621-1.621h4.6a1.621,1.621,0,0,1,1.621,1.621v5.6a12.952,12.952,0,0,1,10.776-7.412A1.623,1.623,0,0,1,321.055,303.3Z" transform="translate(0)"/>
    <path class="cls-1" d="M323.51,351.7a13.015,13.015,0,0,1-6.357-1.667,1.62,1.62,0,0,1-.673-2.045l1.335-3.126a1.622,1.622,0,0,1,2.191-.819,7.585,7.585,0,0,0,3.163.772c2.385,0,4.294-1.432,4.294-4.909V303.485a1.621,1.621,0,0,1,1.621-1.621h4.529a1.621,1.621,0,0,1,1.621,1.621v35.669C335.236,347.743,329.3,351.7,323.51,351.7Zm12.68-60.2a4.806,4.806,0,1,1-4.84-4.772A4.637,4.637,0,0,1,336.19,291.5Z" transform="translate(0)"/>
    <path class="cls-1" d="M381.525,303.485V336.51a1.621,1.621,0,0,1-1.621,1.621h-4.529a1.621,1.621,0,0,1-1.621-1.621V332c-2.659,4.159-6.954,6.477-12.68,6.477-10.431,0-17.383-7.568-17.383-18.611,0-10.84,6.885-18.271,17.111-18.339,5.863-.067,10.294,2.251,12.953,6.477v-4.514a1.621,1.621,0,0,1,1.621-1.621H379.9A1.621,1.621,0,0,1,381.525,303.485Zm-7.771,17.944V318.77c-.614-6.271-4.909-10.567-11.044-10.567-6.545,0-11.112,4.977-11.181,11.93.068,6.885,4.568,11.794,11.181,11.794C368.845,331.928,373.139,327.633,373.753,321.43Z" transform="translate(0)"/>
    <path class="cls-1" d="M403.614,331.315a5.527,5.527,0,0,0,1.8-.331,1.632,1.632,0,0,1,2.166,1.242l.538,3.16a1.639,1.639,0,0,1-.932,1.757,13.5,13.5,0,0,1-5.685,1.33c-5.045,0-9-3.614-9-10.567V289.169a1.621,1.621,0,0,1,1.621-1.621h4.53a1.621,1.621,0,0,1,1.621,1.621v37.919C400.274,330.019,401.569,331.315,403.614,331.315Z" transform="translate(0)"/>
    <path class="cls-1" d="M448.607,303.485V336.51a1.621,1.621,0,0,1-1.621,1.621h-4.529a1.621,1.621,0,0,1-1.621-1.621V332c-2.659,4.159-6.954,6.477-12.68,6.477-10.431,0-17.383-7.568-17.383-18.611,0-10.84,6.885-18.271,17.111-18.339,5.863-.067,10.294,2.251,12.953,6.477v-4.514a1.621,1.621,0,0,1,1.621-1.621h4.529A1.621,1.621,0,0,1,448.607,303.485Zm-7.771,17.944V318.77c-.614-6.271-4.909-10.567-11.044-10.567-6.545,0-11.112,4.977-11.181,11.93.068,6.885,4.568,11.794,11.181,11.794C435.927,331.928,440.221,327.633,440.836,321.43Z" transform="translate(0)"/>
    <path class="cls-1" d="M468.651,291.5a4.572,4.572,0,1,1-4.567-4.772A4.517,4.517,0,0,1,468.651,291.5Zm-.682,11.983V336.51a1.621,1.621,0,0,1-1.621,1.621h-4.529a1.621,1.621,0,0,1-1.621-1.621V303.485a1.621,1.621,0,0,1,1.621-1.621h4.529A1.621,1.621,0,0,1,467.969,303.485Z" transform="translate(0)"/>
    <path class="cls-1" d="M514.258,315.566V336.51a1.621,1.621,0,0,1-1.621,1.621h-4.6a1.621,1.621,0,0,1-1.621-1.621V317.748c0-5.453-3.273-8.794-8.726-8.794-6,.068-9.749,4.227-10.294,9.885V336.51a1.621,1.621,0,0,1-1.621,1.621h-4.6a1.621,1.621,0,0,1-1.621-1.621V303.485a1.621,1.621,0,0,1,1.621-1.621h4.6a1.621,1.621,0,0,1,1.621,1.621v5.333c2.59-5.045,7.226-7.227,13.361-7.227C509.214,301.591,514.258,306.909,514.258,315.566Z" transform="translate(0)"/>
    <path class="cls-1" d="M552.531,327.913l2.214,2.049a1.633,1.633,0,0,1,.071,2.32,19.347,19.347,0,0,1-14.584,6.122c-11.18,0-18.883-7.431-18.883-18.407,0-10.635,7.021-18.27,18.2-18.407,9.408-.129,15.851,5.359,16.981,14.411a1.641,1.641,0,0,1-1.143,1.787l-25.109,7.527a10.834,10.834,0,0,0,10.43,6.817,13.381,13.381,0,0,0,9.587-4.176A1.613,1.613,0,0,1,552.531,327.913Zm-23.344-8.324v.067l19.907-5.931c-1.7-4.09-4.772-5.794-9.067-5.794C533.415,307.932,529.188,312.022,529.188,319.589Z" transform="translate(0)"/>
    <path class="cls-1" d="M599,315.566V336.51a1.621,1.621,0,0,1-1.621,1.621h-4.6a1.621,1.621,0,0,1-1.621-1.621V317.748c0-5.453-3.273-8.794-8.726-8.794-6,.068-9.749,4.227-10.294,9.885V336.51a1.621,1.621,0,0,1-1.621,1.621h-4.6a1.621,1.621,0,0,1-1.621-1.621V303.485a1.621,1.621,0,0,1,1.621-1.621h4.6a1.621,1.621,0,0,1,1.621,1.621v5.333c2.59-5.045,7.226-7.227,13.361-7.227C593.953,301.591,599,306.909,599,315.566Z" transform="translate(0)"/>
    <path class="cls-1" d="M232.993,317.151l13.851-15.287H238.28a1.621,1.621,0,0,0-1.191.522L222.316,318.4V303.583a1.621,1.621,0,0,0-1.621-1.621h-4.633a1.621,1.621,0,0,0-1.621,1.621V336.51a1.621,1.621,0,0,0,1.621,1.621h4.633a1.621,1.621,0,0,0,1.621-1.621v-7.576l5.208-5.734,10.628,14.278a1.621,1.621,0,0,0,1.3.653h8.662Z" transform="translate(0)"/>
  </g>
  <g>
    <path class="cls-1" d="M311.406,147.911c-28.213-7.474-62.129-21.777-75.846-35.859-7.793-8-18.675,4.114-18.728,18.319-.089,23.547,12.542,46.767,31.656,60.227,21.505,15.148,51.371,8.671,67.028-12.485C322.851,168.206,324.735,151.443,311.406,147.911Z" transform="translate(0)"/>
    <path class="cls-1" d="M339.88,59.4c-18.934-9.132-51.424-1.061-63.2,21.158-5.513,10.4-5.321,23.572,8.123,25.844,19.276,3.256,53.895,4.027,82.794,31.984,7.646,7.4,19.5-7.185,12.959-26.356C371.6,85.779,361.971,70.057,339.88,59.4Z" transform="translate(0)"/>
    <path class="cls-1" d="M423.7,44.511A45.484,45.484,0,0,0,387.394,8.2,474.93,474.93,0,0,0,211.6,8.2,45.485,45.485,0,0,0,175.3,44.511a474.892,474.892,0,0,0,0,175.79A45.485,45.485,0,0,0,211.6,256.607a472.585,472.585,0,0,0,87.9,8.2,472.59,472.59,0,0,0,87.895-8.2A45.484,45.484,0,0,0,423.7,220.3a472.6,472.6,0,0,0,8.2-87.894A472.6,472.6,0,0,0,423.7,44.511ZM299.5,229.389a96.983,96.983,0,1,1,96.984-96.983A96.983,96.983,0,0,1,299.5,229.389Z" transform="translate(0)"/>
  </g>
</svg>
