<svg id="Layer_1" data-name="Layer 1" xmlns="http://www.w3.org/2000/svg" xmlns:xlink="http://www.w3.org/1999/xlink" viewBox="0 0 264.812 264.811">
  <defs>
    <style>
      .cls-1 {
        fill: url(#linear-gradient);
      }

      .cls-2 {
        fill: #fff;
      }
    </style>
    <linearGradient id="linear-gradient" x1="-185.508" y1="474.657" x2="281.956" y2="-28.593" gradientUnits="userSpaceOnUse">
      <stop offset="0" stop-color="#007a90"/>
      <stop offset="0.354" stop-color="#004c89"/>
      <stop offset="0.809" stop-color="#006caf"/>
      <stop offset="0.865" stop-color="#0079b6"/>
      <stop offset="1" stop-color="#00a2dc"/>
    </linearGradient>
  </defs>
  <title>5e01fd7b-35d0-4594-a36b-c66874bd1d91</title>
  <path class="cls-1" d="M256.607,44.511A45.485,45.485,0,0,0,220.3,8.2a474.924,474.924,0,0,0-175.789,0A45.485,45.485,0,0,0,8.2,44.511a474.9,474.9,0,0,0,0,175.79,45.485,45.485,0,0,0,36.307,36.307,472.588,472.588,0,0,0,87.895,8.2,472.59,472.59,0,0,0,87.894-8.2A45.485,45.485,0,0,0,256.607,220.3a472.6,472.6,0,0,0,8.2-87.894A472.6,472.6,0,0,0,256.607,44.511Z"/>
  <path class="cls-2" d="M132.406,35.422a96.983,96.983,0,1,0,96.984,96.984A96.984,96.984,0,0,0,132.406,35.422ZM117.713,106.4c-13.443-2.272-13.636-15.441-8.123-25.844,11.772-22.219,44.263-30.29,63.2-21.158,22.091,10.656,31.717,26.379,40.68,52.629,6.545,19.172-5.313,33.754-12.959,26.356C171.607,110.43,136.989,109.658,117.713,106.4Zm30.711,71.712C132.766,199.27,102.9,205.747,81.395,190.6c-19.114-13.46-31.745-36.681-31.657-60.227.053-14.206,10.935-26.318,18.728-18.32,13.717,14.082,47.633,28.385,75.846,35.859C157.642,151.444,155.758,168.206,148.423,178.114Z"/>
</svg>
