<svg id="Layer_1" data-name="Layer 1" xmlns="http://www.w3.org/2000/svg" xmlns:xlink="http://www.w3.org/1999/xlink" viewBox="0 0 742.993 115.087">
  <defs>
    <style>
      .cls-1 {
        fill: url(#linear-gradient);
      }

      .cls-2 {
        fill: #fff;
      }

      .cls-3 {
        fill: url(#linear-gradient-2);
      }

      .cls-4 {
        fill: url(#linear-gradient-3);
      }

      .cls-5 {
        fill: url(#linear-gradient-4);
      }

      .cls-6 {
        fill: url(#linear-gradient-5);
      }

      .cls-7 {
        fill: url(#linear-gradient-6);
      }

      .cls-8 {
        fill: url(#linear-gradient-7);
      }

      .cls-9 {
        fill: url(#linear-gradient-8);
      }

      .cls-10 {
        fill: url(#linear-gradient-9);
      }

      .cls-11 {
        fill: url(#linear-gradient-10);
      }

      .cls-12 {
        fill: url(#linear-gradient-11);
      }

      .cls-13 {
        fill: url(#linear-gradient-12);
      }

      .cls-14 {
        fill: url(#linear-gradient-13);
      }

      .cls-15 {
        fill: url(#linear-gradient-14);
      }

      .cls-16 {
        fill: url(#linear-gradient-15);
      }

      .cls-17 {
        fill: url(#linear-gradient-16);
      }
    </style>
    <linearGradient id="linear-gradient" x1="-80.621" y1="206.285" x2="122.538" y2="-12.427" gradientUnits="userSpaceOnUse">
      <stop offset="0" stop-color="#007a90"/>
      <stop offset="0.354" stop-color="#004c89"/>
      <stop offset="0.809" stop-color="#006caf"/>
      <stop offset="0.865" stop-color="#0079b6"/>
      <stop offset="1" stop-color="#00a2dc"/>
    </linearGradient>
    <linearGradient id="linear-gradient-2" x1="138.098" y1="78.883" x2="446.089" y2="-138.041" xlink:href="#linear-gradient"/>
    <linearGradient id="linear-gradient-3" x1="151.956" y1="98.559" x2="459.948" y2="-118.365" xlink:href="#linear-gradient"/>
    <linearGradient id="linear-gradient-4" x1="170.559" y1="124.972" x2="478.551" y2="-91.952" xlink:href="#linear-gradient"/>
    <linearGradient id="linear-gradient-5" x1="189.384" y1="151.699" x2="497.375" y2="-65.225" xlink:href="#linear-gradient"/>
    <linearGradient id="linear-gradient-6" x1="224.51" y1="201.572" x2="532.501" y2="-15.353" xlink:href="#linear-gradient"/>
    <linearGradient id="linear-gradient-7" x1="234.295" y1="215.464" x2="542.286" y2="-1.46" xlink:href="#linear-gradient"/>
    <linearGradient id="linear-gradient-8" x1="241.874" y1="226.225" x2="549.865" y2="9.301" xlink:href="#linear-gradient"/>
    <linearGradient id="linear-gradient-9" x1="255.162" y1="245.092" x2="563.153" y2="28.168" xlink:href="#linear-gradient"/>
    <linearGradient id="linear-gradient-10" x1="262.467" y1="255.463" x2="570.458" y2="38.539" xlink:href="#linear-gradient"/>
    <linearGradient id="linear-gradient-11" x1="277.405" y1="276.673" x2="585.396" y2="59.749" xlink:href="#linear-gradient"/>
    <linearGradient id="linear-gradient-12" x1="283.831" y1="285.796" x2="591.822" y2="68.872" xlink:href="#linear-gradient"/>
    <linearGradient id="linear-gradient-13" x1="298.063" y1="306.003" x2="606.055" y2="89.079" xlink:href="#linear-gradient"/>
    <linearGradient id="linear-gradient-14" x1="312.363" y1="326.307" x2="620.355" y2="109.382" xlink:href="#linear-gradient"/>
    <linearGradient id="linear-gradient-15" x1="326.161" y1="345.897" x2="634.152" y2="128.973" xlink:href="#linear-gradient"/>
    <linearGradient id="linear-gradient-16" x1="210.192" y1="181.243" x2="518.183" y2="-35.682" xlink:href="#linear-gradient"/>
  </defs>
  <title>b2a20af5-71b9-4624-a2e0-6013f364e777</title>
  <path class="cls-1" d="M111.521,19.345A19.768,19.768,0,0,0,95.742,3.566a206.4,206.4,0,0,0-76.4,0A19.768,19.768,0,0,0,3.566,19.344a206.391,206.391,0,0,0,0,76.4,19.768,19.768,0,0,0,15.779,15.779,205.386,205.386,0,0,0,38.2,3.566,205.387,205.387,0,0,0,38.2-3.566,19.768,19.768,0,0,0,15.779-15.779,205.393,205.393,0,0,0,3.565-38.2A205.393,205.393,0,0,0,111.521,19.345Z"/>
  <path class="cls-2" d="M57.543,15.394A42.149,42.149,0,1,0,99.692,57.544,42.149,42.149,0,0,0,57.543,15.394ZM51.158,46.242c-5.842-.987-5.926-6.711-3.53-11.232,5.116-9.656,19.237-13.164,27.465-9.2,9.6,4.631,13.784,11.464,17.679,22.873,2.845,8.332-2.309,14.669-5.632,11.454C74.58,47.992,59.535,47.657,51.158,46.242ZM64.5,77.408C57.7,86.6,44.72,89.417,35.374,82.834A32.687,32.687,0,0,1,21.616,56.659c.023-6.174,4.752-11.438,8.139-7.962,5.961,6.12,20.7,12.336,32.963,15.584C68.511,65.817,67.692,73.1,64.5,77.408Z"/>
  <g>
    <path class="cls-3" d="M158.1,52.308c-3.072,0-5.325,1.024-5.325,3.619,0,6.69,19.32,3.072,19.252,16.248,0,7.441-6.622,10.786-13.927,10.786a23.365,23.365,0,0,1-13.306-4,1.986,1.986,0,0,1-.584-2.5l1.008-2.017a1.99,1.99,0,0,1,2.863-.785,20.313,20.313,0,0,0,10.359,3.15c3.346,0,5.939-1.161,5.939-3.891,0-7.441-19.114-3.277-19.047-16.384,0-7.373,6.418-10.513,13.381-10.513a24.041,24.041,0,0,1,11.026,2.655,2.012,2.012,0,0,1,.866,2.662l-1.137,2.3a2,2,0,0,1-2.7.891A20.683,20.683,0,0,0,158.1,52.308Z"/>
    <path class="cls-4" d="M214.423,48.369V80.688a2,2,0,0,1-2,2h-3.784a2,2,0,0,1-2-2V76.544c-2.662,4.164-6.963,6.485-12.7,6.485-10.445,0-17.408-7.578-17.408-18.637,0-10.855,6.895-18.3,17.135-18.364,5.871-.068,10.309,2.252,12.971,6.485V48.369a2,2,0,0,1,2-2h3.784A2,2,0,0,1,214.423,48.369Zm-7.783,17.593V63.3c-.614-6.281-4.915-10.582-11.059-10.582-6.554,0-11.128,4.984-11.2,11.947.068,6.9,4.574,11.81,11.2,11.81C201.724,76.475,206.025,72.174,206.639,65.962Z"/>
    <path class="cls-5" d="M286.722,60.091v20.6a2,2,0,0,1-2,2H280.87a2,2,0,0,1-2-2V62.276c0-5.53-3.276-8.875-8.6-8.875-6.212.205-9.967,4.984-9.967,11.333V80.688a2,2,0,0,1-2,2h-3.851a2,2,0,0,1-2-2V62.276c0-5.53-3.209-8.875-8.534-8.875-6.28.205-10.1,4.984-10.1,11.333V80.688a2,2,0,0,1-2,2h-3.783a2,2,0,0,1-2-2V48.369a2,2,0,0,1,2-2h3.783a2,2,0,0,1,2,2V53.4c2.526-5.12,7.168-7.3,13.176-7.3,6.485,0,10.923,3.209,12.63,8.738,2.321-6.076,7.168-8.738,13.79-8.738C281.739,46.1,286.722,51.421,286.722,60.091Z"/>
    <path class="cls-6" d="M330.217,48.369V80.688a2,2,0,0,1-2,2h-3.851a2,2,0,0,1-2-2v-5.1c-2.458,5.052-7.032,7.3-12.972,7.373-8.328,0-13.312-5.325-13.312-13.995v-20.6a2,2,0,0,1,2-2h3.851a2,2,0,0,1,2,2V66.781c0,5.461,3.208,8.807,8.465,8.807,6.281-.137,9.968-4.984,9.968-11.333V48.369a2,2,0,0,1,2-2h3.851A2,2,0,0,1,330.217,48.369Z"/>
  </g>
  <path class="cls-7" d="M433.077,48.022V81.047a1.621,1.621,0,0,1-1.621,1.621h-4.529a1.621,1.621,0,0,1-1.621-1.621V76.533c-2.659,4.159-6.954,6.477-12.68,6.477-10.431,0-17.383-7.568-17.383-18.611,0-10.84,6.885-18.271,17.111-18.339,5.863-.067,10.294,2.251,12.953,6.477V48.022a1.621,1.621,0,0,1,1.621-1.621h4.529A1.621,1.621,0,0,1,433.077,48.022Zm-7.771,17.944V63.307c-.614-6.271-4.909-10.567-11.044-10.567-6.545,0-11.112,4.977-11.181,11.93.068,6.885,4.568,11.794,11.181,11.794C420.4,76.464,424.692,72.17,425.306,65.966Z"/>
  <path class="cls-8" d="M465.05,47.835V52a1.629,1.629,0,0,1-1.584,1.617c-6.378.256-10.391,4.363-10.959,10.1v17.33a1.621,1.621,0,0,1-1.621,1.621h-4.6a1.621,1.621,0,0,1-1.621-1.621V48.022a1.621,1.621,0,0,1,1.621-1.621h4.6a1.621,1.621,0,0,1,1.621,1.621v5.6a12.952,12.952,0,0,1,10.776-7.412A1.623,1.623,0,0,1,465.05,47.835Z"/>
  <path class="cls-9" d="M467.505,96.234a13.015,13.015,0,0,1-6.357-1.667,1.62,1.62,0,0,1-.673-2.045L461.81,89.4A1.622,1.622,0,0,1,464,88.576a7.585,7.585,0,0,0,3.163.772c2.385,0,4.294-1.432,4.294-4.909V48.022A1.621,1.621,0,0,1,473.08,46.4h4.529a1.621,1.621,0,0,1,1.621,1.621V83.691C479.231,92.28,473.3,96.234,467.505,96.234Zm12.68-60.2a4.806,4.806,0,1,1-4.84-4.772A4.637,4.637,0,0,1,480.185,36.039Z"/>
  <path class="cls-10" d="M525.52,48.022V81.047a1.621,1.621,0,0,1-1.621,1.621h-4.529a1.621,1.621,0,0,1-1.621-1.621V76.533c-2.659,4.159-6.954,6.477-12.68,6.477-10.431,0-17.383-7.568-17.383-18.611,0-10.84,6.885-18.271,17.111-18.339,5.863-.067,10.294,2.251,12.953,6.477V48.022a1.621,1.621,0,0,1,1.621-1.621H523.9A1.621,1.621,0,0,1,525.52,48.022Zm-7.771,17.944V63.307c-.614-6.271-4.909-10.567-11.044-10.567-6.545,0-11.112,4.977-11.181,11.93.068,6.885,4.568,11.794,11.181,11.794C512.84,76.464,517.134,72.17,517.748,65.966Z"/>
  <path class="cls-11" d="M547.609,75.851a5.527,5.527,0,0,0,1.8-.331,1.632,1.632,0,0,1,2.166,1.242l.538,3.16a1.639,1.639,0,0,1-.932,1.757,13.5,13.5,0,0,1-5.685,1.33c-5.045,0-9-3.614-9-10.567V33.705a1.621,1.621,0,0,1,1.621-1.621h4.53a1.621,1.621,0,0,1,1.621,1.621V71.624C544.269,74.555,545.564,75.851,547.609,75.851Z"/>
  <path class="cls-12" d="M592.6,48.022V81.047a1.621,1.621,0,0,1-1.621,1.621h-4.529a1.621,1.621,0,0,1-1.621-1.621V76.533c-2.659,4.159-6.954,6.477-12.68,6.477-10.431,0-17.383-7.568-17.383-18.611,0-10.84,6.885-18.271,17.111-18.339,5.863-.067,10.294,2.251,12.953,6.477V48.022a1.621,1.621,0,0,1,1.621-1.621h4.529A1.621,1.621,0,0,1,592.6,48.022ZM584.83,65.966V63.307c-.614-6.271-4.909-10.567-11.044-10.567-6.545,0-11.112,4.977-11.181,11.93.068,6.885,4.568,11.794,11.181,11.794C579.922,76.464,584.216,72.17,584.83,65.966Z"/>
  <path class="cls-13" d="M612.646,36.039a4.569,4.569,0,1,1-9.135,0,4.572,4.572,0,1,1,9.135,0Zm-.682,11.983V81.047a1.621,1.621,0,0,1-1.621,1.621h-4.529a1.621,1.621,0,0,1-1.621-1.621V48.022a1.621,1.621,0,0,1,1.621-1.621h4.529A1.621,1.621,0,0,1,611.964,48.022Z"/>
  <path class="cls-14" d="M658.253,60.1V81.047a1.621,1.621,0,0,1-1.621,1.621h-4.6a1.621,1.621,0,0,1-1.621-1.621V62.285c0-5.453-3.273-8.794-8.726-8.794-6,.068-9.749,4.227-10.294,9.885V81.047a1.621,1.621,0,0,1-1.621,1.621h-4.6a1.621,1.621,0,0,1-1.621-1.621V48.022a1.621,1.621,0,0,1,1.621-1.621h4.6a1.621,1.621,0,0,1,1.621,1.621v5.333c2.59-5.045,7.226-7.227,13.361-7.227C653.209,46.128,658.253,51.445,658.253,60.1Z"/>
  <path class="cls-15" d="M696.526,72.45,698.74,74.5a1.633,1.633,0,0,1,.071,2.32,19.347,19.347,0,0,1-14.584,6.122c-11.18,0-18.883-7.431-18.883-18.407,0-10.635,7.021-18.27,18.2-18.407,9.408-.129,15.851,5.359,16.981,14.411a1.641,1.641,0,0,1-1.143,1.787l-25.109,7.527a10.834,10.834,0,0,0,10.43,6.817,13.381,13.381,0,0,0,9.587-4.176A1.613,1.613,0,0,1,696.526,72.45Zm-23.344-8.324v.067l19.907-5.931c-1.7-4.09-4.772-5.794-9.067-5.794C677.41,52.468,673.183,56.559,673.183,64.126Z"/>
  <path class="cls-16" d="M742.993,60.1V81.047a1.621,1.621,0,0,1-1.621,1.621h-4.6a1.621,1.621,0,0,1-1.621-1.621V62.285c0-5.453-3.273-8.794-8.726-8.794-6,.068-9.749,4.227-10.294,9.885V81.047a1.621,1.621,0,0,1-1.621,1.621h-4.6a1.621,1.621,0,0,1-1.621-1.621V48.022a1.621,1.621,0,0,1,1.621-1.621h4.6a1.621,1.621,0,0,1,1.621,1.621v5.333c2.59-5.045,7.226-7.227,13.361-7.227C737.948,46.128,742.993,51.445,742.993,60.1Z"/>
  <path class="cls-17" d="M376.988,61.687,390.839,46.4h-8.565a1.621,1.621,0,0,0-1.191.522l-14.772,16.01V48.12A1.621,1.621,0,0,0,364.69,46.5h-4.633a1.621,1.621,0,0,0-1.621,1.621V81.047a1.621,1.621,0,0,0,1.621,1.621h4.633a1.621,1.621,0,0,0,1.621-1.621V73.471l5.208-5.734,10.628,14.278a1.621,1.621,0,0,0,1.3.653h8.662Z"/>
</svg>
